<svg
  xmlns="http://www.w3.org/2000/svg"
  width="28px" height="26px">
  <defs>
    <style>
      {
      fill: black;
      }
    </style>
  </defs>
  <path fill-rule="evenodd"  fill="rgb(126, 136, 152)"
        d="M27.685,8.424 C27.290,4.103 24.216,0.968 20.369,0.968 C17.806,0.968 15.459,2.340 14.138,4.539 C12.830,2.312 10.579,0.968 8.57,0.968 C4.210,0.968 1.136,4.103 0.741,8.423 C0.710,8.614 0.582,9.618 0.971,11.256 C1.532,13.618 2.826,15.767 4.714,17.469 L14.132,25.971 L23.712,17.470 C25.599,15.767 26.894,13.619 27.455,11.256 C27.843,9.619 27.715,8.614 27.685,8.424 ZM26.442,11.19 C25.931,13.177 24.745,15.143 23.16,16.700 L14.138,24.580 L5.413,16.703 C3.681,15.142 2.496,13.176 1.984,11.19 C1.615,9.469 1.767,8.593 1.767,8.588 L1.775,8.535 C2.113,4.750 4.754,2.2 8.57,2.2 C10.494,2.2 12.639,3.492 13.657,5.889 L14.136,7.18 L14.614,5.889 C15.616,3.528 17.875,2.3 20.369,2.3 C23.671,2.3 26.313,4.750 26.658,8.585 C26.659,8.593 26.810,9.469 26.442,11.19 Z"/>
</svg>
