<svg
  xmlns="http://www.w3.org/2000/svg"
  width="28px" height="26px">
  <defs>
    <style>
      {
      .fil0 {fill:black}
      .fil1 {fill:#7E8898;fill-rule:nonzero}
      }
    </style>
  </defs>
  <path class="fil0" d="M656.72 26.32c131.36,0 237.85,106.49 237.85,237.85 0,156.25 -298.16,427.65 -435.32,517.99 -121,-75.56 -460.12,-390.12 -431.42,-512.67 0,-131.96 106.98,-238.94 238.95,-238.94 79.75,0 150.36,39.08 193.76,99.12 42.87,-62.41 114.74,-103.35 196.18,-103.35z"/>
  <path class="fil1" d="M459.24 838.17c-5.93,0 -11.61,-3.53 -15.76,-7.75l-364.79 -369.98c-106.85,-112.06 -104.84,-285.4 4.29,-394.54 42.86,-42.86 98.84,-65.64 161.87,-65.64 72.67,0 151.55,30.97 214.62,83.71 63.05,-52.74 141.94,-83.82 214.61,-83.82 63.03,0 119.01,22.62 161.87,65.49 107.44,107.44 109.4,284.3 4.33,394.24l-365.28 370.55c-4.15,4.24 -9.83,7.74 -15.76,7.74zm-214.39 -793.73c-51.02,0 -96.15,18.17 -130.52,52.53 -91.97,91.98 -93.64,237.81 -3.83,332.01l348.75 353.18 349.24 -353.2c88.3,-92.38 86.66,-241.43 -3.91,-331.99 -34.35,-34.36 -79.49,-52.51 -130.5,-52.51 -67.67,0 -142.24,31.85 -199.5,85.23 -8.52,7.92 -21.72,7.92 -30.22,0 -57.27,-53.38 -131.84,-85.25 -199.51,-85.25z"/>
</svg>
