<svg xmlns="http://www.w3.org/2000/svg" xmlns:xlink="http://www.w3.org/1999/xlink" width="22.406" height="12.56" viewBox="0 0 22.406 12.56">
  <defs>
    <style>
      .cls-1 {
        fill: #fff;
        fill-rule: evenodd;
        filter: url(#filter);
      }
    </style>
    <filter id="filter" x="156.656" y="2815.66" width="22.406" height="12.56" filterUnits="userSpaceOnUse">
      <feFlood result="flood"/>
      <feComposite result="composite" operator="in" in2="SourceGraphic"/>
      <feBlend result="blend" in2="SourceGraphic"/>
    </filter>
  </defs>
  <path id="Фигура_1" data-name="Фигура 1" class="cls-1" d="M167.613,2828.19h1.34a1.211,1.211,0,0,0,.611-0.26,0.971,0.971,0,0,0,.184-0.58s-0.026-1.78.808-2.04,1.88,1.72,3,2.47a2.116,2.116,0,0,0,1.491.45l2.994-.04s1.566-.1.823-1.31a9.865,9.865,0,0,0-2.226-2.54c-1.878-1.71-1.626-1.44.635-4.4,1.378-1.81,1.928-2.92,1.756-3.39-0.164-.45-1.177-0.33-1.177-0.33l-3.371.02a0.788,0.788,0,0,0-.435.08,0.886,0.886,0,0,0-.3.35,19.016,19.016,0,0,1-1.245,2.59c-1.5,2.51-2.1,2.64-2.346,2.49-0.571-.37-0.429-1.46-0.429-2.24,0-2.43.375-3.45-.729-3.71a5.424,5.424,0,0,0-1.574-.15,7.185,7.185,0,0,0-2.8.28c-0.383.18-.679,0.59-0.5,0.62a1.515,1.515,0,0,1,1,.49,3.153,3.153,0,0,1,.333,1.5s0.2,2.87-.464,3.22c-0.454.25-1.077-.25-2.415-2.53a21.213,21.213,0,0,1-1.2-2.46,0.985,0.985,0,0,0-.278-0.37,1.47,1.47,0,0,0-.517-0.2l-3.2.02a1.076,1.076,0,0,0-.657.22,0.675,0.675,0,0,0-.013.56s2.508,5.78,5.348,8.69A7.777,7.777,0,0,0,167.613,2828.19Z" transform="translate(-156.656 -2815.66)"/>
</svg>
