<svg xmlns="http://www.w3.org/2000/svg" width="23.219" height="26.531" viewBox="0 0 23.219 26.531">
  <defs>
    <style>
      .cls-1 {
        fill: #7a899a;
        fill-rule: evenodd;
      }
    </style>
  </defs>
  <path id="Forma_1" data-name="Forma 1" class="cls-1" d="M357.858,17.611H354.2v-2.4a2.411,2.411,0,0,0-2.419-2.4H345a2.411,2.411,0,0,0-2.419,2.4v2.4h-3.662a0.482,0.482,0,0,0-.484.48L336.78,38.874a0.482,0.482,0,0,0,.484.48h22.252a0.482,0.482,0,0,0,.484-0.48L358.341,18.09A0.481,0.481,0,0,0,357.858,17.611Zm-14.305-2.4A1.444,1.444,0,0,1,345,13.776h6.772a1.445,1.445,0,0,1,1.452,1.438v2.4h-9.675v-2.4Zm15.479,23.181H337.748l1.658-19.825h3.179v1.917a0.484,0.484,0,0,0,.968,0V18.57h9.675v1.917a0.484,0.484,0,0,0,.967,0V18.57h3.179Z" transform="translate(-336.781 -12.813)"/>
</svg>
