<svg xmlns="http://www.w3.org/2000/svg" width="26.781" height="24.406" viewBox="0 0 26.781 24.406">
  <defs>
    <style>
      .cls-1 {
        fill: #7a899a;
        fill-rule: evenodd;
      }
    </style>
  </defs>
  <path id="Forma_1" data-name="Forma 1" class="cls-1" d="M307.479,22.559c-0.391-4.219-3.439-7.28-7.254-7.28a7.239,7.239,0,0,0-6.177,3.487,6.973,6.973,0,0,0-6.029-3.487c-3.814,0-6.863,3.061-7.254,7.279a7.373,7.373,0,0,0,.228,2.767,11.823,11.823,0,0,0,3.711,6.067l9.338,8.3,9.5-8.3a11.83,11.83,0,0,0,3.711-6.067A7.4,7.4,0,0,0,307.479,22.559Zm-1.232,2.535a10.811,10.811,0,0,1-3.4,5.547l-8.8,7.694L285.4,30.643a10.824,10.824,0,0,1-3.4-5.55,6.453,6.453,0,0,1-.215-2.374l0.008-.051c0.335-3.7,2.954-6.379,6.229-6.379a6.041,6.041,0,0,1,5.552,3.8l0.474,1.1,0.475-1.1a6.228,6.228,0,0,1,5.706-3.795c3.274,0,5.893,2.683,6.235,6.427A6.423,6.423,0,0,1,306.247,25.094Z" transform="translate(-280.719 -15.281)"/>
</svg>
