<svg xmlns="http://www.w3.org/2000/svg" width="20" height="21" viewBox="0 0 20 21">
  <defs>
    <style>
      .cls-1 {
        fill: #8593a2;
        fill-rule: evenodd;
      }
    </style>
  </defs>
  <path id="Forma_1" data-name="Forma 1" class="cls-1" d="M135.035,2890.77a0.617,0.617,0,0,1,0-.54l0.778-1.6a1.839,1.839,0,0,0-.781-2.43l-1.564-.83a0.615,0.615,0,0,1-.317-0.44l-0.306-1.76a1.8,1.8,0,0,0-2.044-1.49l-1.752.25a0.646,0.646,0,0,1-.514-0.17l-1.272-1.24a1.8,1.8,0,0,0-2.526,0l-1.272,1.24a0.646,0.646,0,0,1-.514.17l-1.753-.25a1.8,1.8,0,0,0-2.043,1.49l-0.306,1.76a0.614,0.614,0,0,1-.318.44l-1.563.83a1.839,1.839,0,0,0-.781,2.43l0.777,1.6a0.61,0.61,0,0,1,0,.54l-0.777,1.6a1.824,1.824,0,0,0,.781,2.42l1.563,0.84a0.614,0.614,0,0,1,.318.44l0.306,1.76a1.808,1.808,0,0,0,1.783,1.51,1.145,1.145,0,0,0,.26-0.02l1.753-.25a0.646,0.646,0,0,1,.514.17l1.272,1.24a1.794,1.794,0,0,0,2.526,0l1.272-1.24a0.646,0.646,0,0,1,.514-0.17l1.752,0.25a1.8,1.8,0,0,0,2.044-1.49l0.306-1.76a0.615,0.615,0,0,1,.317-0.44l1.564-.84a1.824,1.824,0,0,0,.781-2.42Zm-0.566,2.95-1.564.84a1.826,1.826,0,0,0-.938,1.3l-0.306,1.76a0.606,0.606,0,0,1-.691.5l-1.753-.25a1.812,1.812,0,0,0-1.517.5l-1.273,1.24a0.615,0.615,0,0,1-.854,0l-1.273-1.24a1.808,1.808,0,0,0-1.259-.51,2.234,2.234,0,0,0-.258.01l-1.753.25a0.606,0.606,0,0,1-.691-0.5l-0.306-1.76a1.826,1.826,0,0,0-.938-1.3l-1.564-.84a0.607,0.607,0,0,1-.264-0.81l0.777-1.61a1.813,1.813,0,0,0,0-1.6l-0.777-1.61a0.621,0.621,0,0,1,.264-0.82l1.564-.83a1.826,1.826,0,0,0,.938-1.3l0.3-1.76a0.622,0.622,0,0,1,.692-0.51l1.753,0.25a1.807,1.807,0,0,0,1.517-.49l1.273-1.24a0.6,0.6,0,0,1,.854,0l1.272,1.24a1.809,1.809,0,0,0,1.518.49l1.753-.25a0.621,0.621,0,0,1,.691.51l0.306,1.76a1.824,1.824,0,0,0,.938,1.3l1.564,0.83a0.622,0.622,0,0,1,.264.82l-0.778,1.61a1.82,1.82,0,0,0,0,1.6l0.778,1.61A0.608,0.608,0,0,1,134.469,2893.72Zm-4.077-7.65a0.61,0.61,0,0,0-.85,0l-7.934,8a0.6,0.6,0,0,0,0,.85,0.592,0.592,0,0,0,.85,0l7.934-7.99A0.615,0.615,0,0,0,130.392,2886.07Zm-6.8-1.02a2.22,2.22,0,1,0,2.2,2.22A2.21,2.21,0,0,0,123.6,2885.05Zm0,3.23a1.01,1.01,0,1,1,1-1.01A1,1,0,0,1,123.6,2888.28Zm4.808,3.23a2.22,2.22,0,1,0,2.2,2.22A2.217,2.217,0,0,0,128.4,2891.51Zm0,3.23a1.01,1.01,0,1,1,1-1.01A1.006,1.006,0,0,1,128.4,2894.74Z" transform="translate(-116 -2880)"/>
</svg>
