<svg xmlns="http://www.w3.org/2000/svg" role="img" viewBox="0 0 14 14" class="icon icon_grid-4 radio-switch__icon">
                  <g fill="currentColor">
                    <path d="M4 4h2v2H4z"></path>
                    <path d="M4 0h2v2H4z"></path>
                    <path d="M4 8h2v2H4z"></path>
                    <path d="M4 12h2v2H4z"></path>
                    <path d="M0 4h2v2H0z"></path>
                    <path d="M0 0h2v2H0z"></path>
                    <path d="M0 8h2v2H0z"></path>
                    <path d="M0 12h2v2H0z"></path>
                    <path d="M8 4h2v2H8z"></path>
                    <path d="M8 0h2v2H8z"></path>
                    <path d="M8 8h2v2H8z"></path>
                    <path d="M8 12h2v2H8z"></path>
                    <path d="M12 4h2v2h-2z"></path>
                    <path d="M12 0h2v2h-2z"></path>
                    <path d="M12 8h2v2h-2z"></path>
                    <path d="M12 12h2v2h-2z"></path>
                  </g>
                </svg>

